<?xml version="1.0" standalone="no"?>
<!DOCTYPE svg PUBLIC "-//W3C//DTD SVG 20010904//EN"
 "http://www.w3.org/TR/2001/REC-SVG-20010904/DTD/svg10.dtd">
<svg version="1.0" xmlns="http://www.w3.org/2000/svg"
 width="48.000000pt" height="56.000000pt" viewBox="0 0 48.000000 56.000000"
 preserveAspectRatio="xMidYMid meet">

<g transform="translate(0.000000,56.000000) scale(0.100000,-0.100000)"
fill="#000000" stroke="none">
<path d="M227 554 c-4 -4 -7 -74 -7 -156 0 -142 1 -148 20 -148 20 0 20 5 18
152 -3 141 -9 173 -31 152z"/>
<path d="M115 448 c-90 -48 -136 -171 -103 -279 15 -51 70 -114 122 -141 57
-30 155 -30 212 0 52 27 107 90 122 141 32 107 -12 231 -99 277 -52 26 -53
-14 -3 -59 133 -116 50 -337 -126 -337 -105 0 -190 84 -190 187 0 68 18 110
64 150 48 43 49 86 1 61z"/>
</g>
</svg>
